# xmcd CD database file
#
# Track frame offsets:
#	150
#	15144
#	28273
#	42522
#	56030
#	70717
#	86001
#	97224
#	109019
#	123661
#	135583
#	147204
#	159717
#	175072
#	188549
#	198937
#
# Disc length: 2832 seconds
#
# Revision: 6
# Processed by: cddbd v1.5.2PL0 Copyright (c) Steve Scherf et al.
# Submitted via: CDex 1.51
#
DISCID=db0b0e10
DTITLE=Charlie Barnet - Skyliner
DYEAR=1944
DGENRE=Jazz
TTITLE0=Cherokee  [1939]
TTITLE1=Flying Home  [1940]
TTITLE2=Rockin' In Rhythm  [1940]
TTITLE3=Pompton Turnpike  [1940]
TTITLE4=Wild Mob Of The Fish Pond  [1940]
TTITLE5=Southern Fried
TTITLE6=Lumby  [1940]
TTITLE7=Charleston Alley  [1941]
TTITLE8=You're My Thrill  [1941]
TTITLE9=Things Ain't What They Used To Be  [1942]
TTITLE10=The Moose  [1943]
TTITLE11=Pow - Wow  [1943]
TTITLE12=Strollin'  [1943]
TTITLE13=Sharecroppin' Blues  [1944]
TTITLE14=Drop Me Off In Harlem  [1944]
TTITLE15=Skyliner  [1944]
EXTD=YEAR: 1944
EXTT0=
EXTT1=
EXTT2=
EXTT3=
EXTT4=
EXTT5=
EXTT6=
EXTT7=
EXTT8=
EXTT9=
EXTT10=
EXTT11=
EXTT12=
EXTT13=
EXTT14=
EXTT15=
PLAYORDER=
